<svg xmlns="http://www.w3.org/2000/svg" xmlns:xlink="http://www.w3.org/1999/xlink" width="50" zoomAndPan="magnify" viewBox="0 0 37.5 37.499999" height="50" preserveAspectRatio="xMidYMid meet" version="1.0"><defs><clipPath id="467cdeb67b"><path d="M 0 1.851562 L 37 1.851562 L 37 35.15625 L 0 35.15625 Z M 0 1.851562 " clip-rule="nonzero"/></clipPath></defs><g clip-path="url(#467cdeb67b)"><path fill="#020302" d="M 36.625 22.992188 C 36.574219 23.019531 36.53125 23.0625 36.53125 23.0625 C 36.53125 23.0625 36.414062 22.722656 36.003906 20.300781 C 36.160156 20.160156 36.3125 20.023438 36.472656 19.886719 C 36.554688 19.8125 36.589844 19.640625 36.515625 19.542969 C 36.253906 19.195312 35.960938 18.871094 35.675781 18.542969 C 35.398438 18.214844 35.113281 17.898438 34.835938 17.570312 C 34.265625 16.925781 33.691406 16.292969 33.105469 15.667969 C 31.9375 14.414062 30.730469 13.203125 29.488281 12.011719 C 27.019531 9.644531 24.414062 7.425781 21.695312 5.34375 C 20.167969 4.175781 17.757812 2.375 17.011719 1.984375 C 16.765625 1.851562 15.203125 2.859375 14.925781 3.027344 C 14.375 3.355469 13.835938 3.695312 13.308594 4.042969 C 12.257812 4.734375 11.226562 5.453125 10.21875 6.199219 C 8.179688 7.707031 6.222656 9.328125 4.40625 11.097656 C 3.441406 12.039062 2.503906 13.011719 1.605469 14.015625 C 0.882812 14.117188 0.421875 15.117188 0.234375 15.707031 C 0.0351562 16.308594 0 17.003906 0.234375 17.601562 C 0.253906 17.695312 0.359375 17.875 0.503906 18.164062 C 1.335938 19.574219 2.199219 20.539062 3.214844 21.816406 C 4.289062 23.164062 5.457031 24.441406 6.691406 25.65625 C 7.941406 26.882812 9.253906 28.035156 10.628906 29.117188 C 12 30.199219 13.425781 31.207031 14.894531 32.15625 C 16.296875 33.0625 17.742188 33.90625 19.226562 34.667969 C 19.421875 34.769531 19.613281 34.863281 19.824219 34.929688 C 20.488281 35.15625 21.039062 35.089844 21.542969 34.898438 C 21.914062 34.761719 22.257812 34.574219 22.59375 34.371094 C 22.972656 34.136719 23.359375 33.90625 23.734375 33.667969 C 25.203125 32.738281 26.632812 31.75 28.027344 30.714844 C 29.402344 29.691406 30.722656 28.730469 32.023438 27.621094 C 34.710938 25.320312 36.304688 23.855469 36.707031 23.464844 C 37.007812 23.171875 36.910156 22.839844 36.625 22.992188 Z M 7.21875 9.3125 C 9.132812 7.703125 12.527344 4.863281 16.960938 2.492188 C 16.960938 2.492188 22.324219 6.511719 24.859375 8.652344 C 27.453125 10.84375 29.929688 13.171875 32.265625 15.632812 C 32.914062 16.316406 33.550781 17.011719 34.179688 17.714844 C 34.5 18.070312 34.816406 18.433594 35.128906 18.796875 C 35.386719 19.085938 35.625 19.390625 35.882812 19.683594 C 35.070312 20.488281 34.207031 21.242188 33.347656 21.992188 C 32.417969 22.796875 31.46875 23.585938 30.511719 24.363281 C 28.621094 25.886719 26.683594 27.359375 24.707031 28.769531 C 23.777344 29.429688 21.820312 30.675781 21.777344 30.65625 C 20.328125 29.871094 18.90625 29.035156 17.515625 28.152344 C 16.070312 27.230469 14.652344 26.265625 13.28125 25.234375 C 11.914062 24.210938 10.59375 23.113281 9.3125 21.992188 C 8.019531 20.851562 6.777344 19.660156 5.582031 18.425781 C 4.40625 17.195312 2.621094 15.261719 2.039062 14.320312 C 2.007812 14.277344 5.355469 10.871094 7.21875 9.3125 Z M 3.964844 22.027344 C 2.914062 20.765625 2 19.53125 1.089844 18.164062 C 0.941406 17.949219 0.722656 17.519531 0.722656 17.511719 C 0.539062 17.214844 0.5625 16.410156 0.695312 15.871094 C 0.824219 15.355469 1.097656 14.878906 1.484375 14.507812 C 2.519531 15.84375 3.617188 17.136719 4.769531 18.367188 C 5.398438 19.035156 5.945312 19.601562 6.605469 20.242188 C 6.617188 20.253906 5.691406 21.03125 4.785156 22.992188 C 4.515625 22.671875 4.238281 22.351562 3.964844 22.027344 Z M 5.878906 24.167969 C 5.675781 23.949219 5.464844 23.730469 5.257812 23.507812 C 5.257812 23.507812 5.296875 23.414062 5.3125 23.367188 C 5.507812 22.855469 5.710938 22.347656 5.988281 21.859375 C 6.261719 21.386719 6.574219 20.953125 6.941406 20.554688 C 7.152344 20.757812 7.355469 20.960938 7.574219 21.15625 C 7.203125 21.632812 6.859375 22.144531 6.558594 22.671875 C 6.398438 22.957031 6.261719 23.261719 6.136719 23.558594 C 6.054688 23.753906 5.953125 23.957031 5.878906 24.167969 Z M 11.234375 28.941406 C 9.890625 27.917969 8.722656 26.933594 7.496094 25.769531 C 7.070312 25.371094 6.683594 24.964844 6.273438 24.550781 C 6.347656 24.261719 6.4375 24.03125 6.539062 23.78125 C 6.660156 23.484375 6.800781 23.1875 6.945312 22.898438 C 7.203125 22.367188 7.523438 21.941406 7.890625 21.429688 C 8.109375 21.632812 8.246094 21.78125 8.472656 21.984375 C 9.753906 23.144531 11.074219 24.253906 12.441406 25.3125 C 12.675781 25.496094 12.902344 25.667969 13.132812 25.851562 C 13.132812 25.851562 12.863281 26.148438 12.746094 26.285156 C 12.511719 26.5625 12.300781 26.859375 12.105469 27.164062 C 11.90625 27.46875 11.722656 27.78125 11.570312 28.109375 C 11.433594 28.367188 11.308594 28.652344 11.234375 28.941406 Z M 12.578125 29.964844 C 12.308594 29.777344 12.046875 29.582031 11.78125 29.386719 C 11.898438 28.832031 12.402344 27.816406 12.570312 27.511719 C 12.734375 27.207031 12.914062 26.910156 13.113281 26.628906 C 13.207031 26.480469 13.300781 26.34375 13.410156 26.207031 C 13.433594 26.175781 13.457031 26.148438 13.476562 26.121094 C 13.820312 26.378906 14.164062 26.632812 14.507812 26.890625 C 14.492188 26.902344 14.222656 27.207031 14.097656 27.351562 C 13.863281 27.644531 13.632812 27.941406 13.433594 28.253906 C 13.238281 28.566406 13.0625 28.890625 12.902344 29.21875 C 12.785156 29.457031 12.660156 29.710938 12.578125 29.964844 Z M 19.203125 33.855469 C 19.140625 33.828125 19.074219 33.796875 19.007812 33.761719 C 18.636719 33.585938 18.261719 33.40625 17.898438 33.222656 C 17.152344 32.847656 16.421875 32.433594 15.699219 32.011719 C 14.800781 31.480469 13.921875 30.910156 13.0625 30.3125 C 13.324219 29.507812 14.003906 27.925781 14.800781 27.136719 C 14.800781 27.136719 15.96875 27.941406 16.625 28.390625 C 18.050781 29.355469 19.503906 30.269531 20.988281 31.125 C 20.996094 31.132812 21 31.132812 21.007812 31.140625 C 20.503906 31.503906 20.03125 31.910156 19.65625 32.402344 C 19.367188 32.804688 19.160156 33.347656 19.203125 33.855469 Z M 36.078125 23.40625 C 35.035156 24.363281 33.640625 25.523438 32.550781 26.453125 C 31.324219 27.503906 29.878906 28.660156 28.585938 29.640625 C 27.277344 30.625 25.933594 31.5625 24.558594 32.453125 C 23.851562 32.910156 23.132812 33.363281 22.410156 33.796875 C 21.847656 34.132812 21.175781 34.558594 20.496094 34.472656 C 20.410156 34.457031 20.316406 34.4375 20.226562 34.386719 C 20.152344 34.347656 20.082031 34.296875 20.023438 34.234375 C 19.972656 34.183594 19.929688 34.117188 19.898438 34.042969 C 19.773438 33.78125 19.832031 33.457031 19.933594 33.179688 C 20.050781 32.855469 20.277344 32.578125 20.519531 32.332031 C 20.78125 32.054688 21.082031 31.800781 21.390625 31.570312 C 21.445312 31.527344 21.644531 31.378906 21.652344 31.378906 C 21.820312 31.273438 25.808594 28.574219 27.582031 27.257812 C 29.570312 25.792969 31.511719 24.261719 33.390625 22.644531 C 34.144531 21.996094 35.019531 21.183594 35.589844 20.617188 C 35.597656 20.613281 35.722656 21.292969 35.714844 21.300781 C 35.296875 21.65625 34.894531 22.035156 34.488281 22.390625 C 34.019531 22.796875 31.199219 25.21875 30.226562 26.003906 C 28.300781 27.5625 26.304688 29.042969 24.28125 30.488281 C 23.222656 31.25 22.457031 31.757812 21.199219 32.65625 C 20.9375 32.847656 21.082031 32.882812 21.226562 32.796875 C 23.289062 31.5625 25.1875 30.234375 27.128906 28.8125 C 29.367188 27.164062 31.542969 25.429688 33.640625 23.609375 C 33.925781 23.363281 34.207031 23.109375 34.488281 22.847656 C 34.875 22.492188 35.765625 21.691406 35.765625 21.691406 C 35.765625 21.691406 35.851562 22.09375 35.882812 22.257812 C 35.890625 22.296875 33.464844 24.390625 32.980469 24.804688 C 32.011719 25.648438 31.015625 26.46875 30.015625 27.273438 C 28.074219 28.839844 25.984375 30.320312 23.929688 31.75 C 22.960938 32.433594 22.683594 32.65625 21.199219 33.558594 C 21.105469 33.617188 21.175781 33.753906 21.316406 33.675781 C 21.445312 33.59375 21.570312 33.523438 21.695312 33.449219 C 23.9375 32.128906 25.035156 31.402344 26.765625 30.175781 C 28.867188 28.679688 30.914062 27.09375 32.886719 25.429688 C 33.425781 24.972656 35.992188 22.714844 35.992188 22.714844 C 35.960938 22.722656 36.09375 23.382812 36.078125 23.40625 Z M 36.078125 23.40625 " fill-opacity="1" fill-rule="nonzero"/></g></svg>