<svg xmlns="http://www.w3.org/2000/svg" xmlns:xlink="http://www.w3.org/1999/xlink" width="50" zoomAndPan="magnify" viewBox="0 0 37.5 37.499999" height="50" preserveAspectRatio="xMidYMid meet" version="1.0"><defs><clipPath id="841ae1ae90"><path d="M 0 2.476562 L 28 2.476562 L 28 17 L 0 17 Z M 0 2.476562 " clip-rule="nonzero"/></clipPath><clipPath id="4b7f4e0c3b"><path d="M 21 31 L 37.007812 31 L 37.007812 34.300781 L 21 34.300781 Z M 21 31 " clip-rule="nonzero"/></clipPath></defs><path fill="#000000" d="M 14.132812 9.316406 L 14.125 9.078125 C 14.042969 8.957031 13.949219 8.851562 13.84375 8.757812 C 13.734375 8.660156 13.605469 8.582031 13.464844 8.53125 C 13.140625 8.390625 12.835938 8.324219 12.558594 8.324219 C 12.335938 8.324219 12.113281 8.363281 11.90625 8.429688 C 11.699219 8.5 11.511719 8.605469 11.351562 8.75 C 11.191406 8.894531 11.058594 9.078125 10.960938 9.308594 C 10.859375 9.535156 10.8125 9.8125 10.8125 10.125 C 10.8125 10.46875 10.875 10.742188 11 10.964844 C 11.128906 11.183594 11.28125 11.359375 11.460938 11.488281 C 11.636719 11.621094 11.828125 11.710938 12.027344 11.765625 C 12.226562 11.816406 12.398438 11.847656 12.527344 11.847656 C 12.710938 11.847656 12.898438 11.816406 13.089844 11.765625 C 13.28125 11.710938 13.449219 11.628906 13.605469 11.519531 C 13.757812 11.414062 13.871094 11.292969 13.972656 11.140625 C 14.066406 10.984375 14.125 10.8125 14.15625 10.605469 C 14.164062 10.484375 14.164062 10.261719 14.15625 9.941406 C 14.140625 9.597656 14.140625 9.390625 14.132812 9.316406 Z M 14.132812 9.316406 " fill-opacity="1" fill-rule="nonzero"/><g clip-path="url(#841ae1ae90)"><path fill="#000000" d="M 22.433594 15.9375 L 22.433594 9.300781 C 22.433594 7.644531 23.789062 6.300781 25.453125 6.300781 C 26.0625 6.300781 26.625 6.484375 27.101562 6.789062 C 26.078125 4.273438 23.617188 2.484375 20.714844 2.484375 L 6.894531 2.484375 C 3.082031 2.484375 0 5.554688 0 9.332031 C 0 13.113281 3.089844 16.175781 6.894531 16.175781 L 20.714844 16.175781 C 21.3125 16.183594 21.882812 16.082031 22.433594 15.9375 Z M 6.070312 6.453125 C 6.070312 6.539062 6.078125 6.621094 6.078125 6.707031 C 6.078125 6.820312 6.078125 6.933594 6.070312 7.050781 C 6.070312 7.164062 6.070312 7.285156 6.070312 7.40625 L 6.070312 8.371094 C 6.070312 8.40625 6.070312 8.445312 6.070312 8.484375 L 6.59375 8.484375 C 6.679688 8.484375 6.777344 8.484375 6.902344 8.492188 C 7.015625 8.492188 7.15625 8.492188 7.324219 8.492188 L 7.863281 8.492188 C 8.132812 8.492188 8.324219 8.507812 8.460938 8.535156 C 8.644531 8.574219 8.761719 8.695312 8.785156 8.871094 C 8.785156 9.148438 8.644531 9.308594 8.40625 9.308594 C 8.394531 9.308594 8.386719 9.308594 8.371094 9.300781 C 8.292969 9.308594 8.214844 9.308594 8.148438 9.308594 C 7.902344 9.316406 7.707031 9.316406 7.484375 9.300781 C 7.355469 9.292969 7.222656 9.292969 7.101562 9.285156 C 6.941406 9.285156 6.816406 9.277344 6.695312 9.269531 C 6.402344 9.253906 6.234375 9.261719 6.070312 9.269531 C 6.0625 9.429688 6.054688 9.597656 6.039062 9.78125 C 6.027344 10.007812 6.003906 10.238281 5.988281 10.476562 C 5.964844 10.710938 5.949219 10.933594 5.941406 11.152344 C 5.933594 11.320312 5.925781 11.476562 5.917969 11.613281 L 6.601562 11.679688 C 6.800781 11.703125 6.957031 11.710938 7.078125 11.726562 C 7.203125 11.734375 7.308594 11.742188 7.402344 11.742188 C 7.515625 11.742188 7.679688 11.75 7.878906 11.742188 C 7.929688 11.742188 7.984375 11.734375 8.039062 11.734375 L 8.9375 11.710938 C 9.390625 11.695312 9.484375 11.902344 9.5 12.03125 C 9.5 12.046875 9.5 12.054688 9.5 12.070312 C 9.46875 12.277344 9.277344 12.40625 8.9375 12.457031 C 8.652344 12.503906 8.277344 12.519531 7.824219 12.519531 C 7.714844 12.519531 7.617188 12.519531 7.53125 12.511719 C 7.441406 12.511719 7.363281 12.503906 7.277344 12.496094 L 6.480469 12.457031 C 6.410156 12.453125 6.339844 12.453125 6.277344 12.457031 C 6.203125 12.457031 6.125 12.457031 6.054688 12.453125 C 6.046875 12.453125 6.035156 12.453125 6.019531 12.457031 C 5.996094 12.457031 5.964844 12.464844 5.925781 12.464844 C 5.78125 12.464844 5.640625 12.464844 5.503906 12.457031 C 5.363281 12.453125 5.242188 12.445312 5.125 12.429688 C 5.003906 12.414062 4.910156 12.382812 4.828125 12.335938 C 4.71875 12.285156 4.65625 12.191406 4.65625 12.078125 C 4.65625 11.839844 4.804688 11.703125 5.042969 11.6875 C 5.089844 11.328125 5.125 10.949219 5.148438 10.558594 C 5.171875 10.15625 5.195312 9.726562 5.21875 9.277344 C 4.855469 9.222656 4.796875 9.003906 4.796875 8.863281 C 4.796875 8.742188 4.835938 8.652344 4.902344 8.582031 C 4.972656 8.523438 5.082031 8.492188 5.242188 8.492188 C 5.242188 8.453125 5.25 8.398438 5.25 8.332031 C 5.25 8.238281 5.257812 8.09375 5.257812 7.910156 C 5.257812 7.726562 5.265625 7.46875 5.265625 7.125 L 5.265625 6.851562 C 5.265625 6.773438 5.265625 6.707031 5.257812 6.636719 C 5.257812 6.570312 5.25 6.5 5.25 6.429688 C 5.25 6.386719 5.242188 6.339844 5.242188 6.285156 C 5.089844 6.242188 5.003906 6.109375 5.003906 5.933594 C 5.003906 5.78125 5.082031 5.691406 5.148438 5.652344 C 5.226562 5.597656 5.355469 5.570312 5.542969 5.554688 L 6.894531 5.523438 C 7.316406 5.515625 7.917969 5.515625 8.371094 5.523438 C 8.585938 5.523438 8.777344 5.539062 8.945312 5.5625 C 9.109375 5.585938 9.246094 5.621094 9.347656 5.667969 C 9.523438 5.753906 9.554688 5.890625 9.554688 5.964844 C 9.554688 6.101562 9.515625 6.203125 9.429688 6.277344 C 9.351562 6.347656 9.261719 6.386719 9.152344 6.394531 C 9.054688 6.386719 8.9375 6.378906 8.800781 6.371094 C 8.652344 6.363281 8.492188 6.355469 8.316406 6.347656 C 8.132812 6.339844 7.9375 6.332031 7.722656 6.324219 C 7.308594 6.308594 6.839844 6.316406 6.488281 6.324219 C 6.355469 6.324219 6.21875 6.332031 6.078125 6.339844 C 6.0625 6.378906 6.0625 6.414062 6.070312 6.453125 Z M 15.394531 12.414062 C 15.316406 12.519531 15.210938 12.582031 15.070312 12.597656 C 14.941406 12.613281 14.839844 12.589844 14.757812 12.535156 C 14.695312 12.488281 14.601562 12.40625 14.480469 12.269531 C 14.402344 12.183594 14.347656 12.109375 14.304688 12.023438 C 14.019531 12.238281 13.742188 12.398438 13.464844 12.496094 C 13.148438 12.613281 12.835938 12.6875 12.550781 12.710938 C 12.519531 12.710938 12.488281 12.710938 12.464844 12.710938 C 12.382812 12.710938 12.289062 12.703125 12.191406 12.6875 C 12.058594 12.671875 11.929688 12.640625 11.789062 12.605469 C 11.644531 12.558594 11.503906 12.503906 11.367188 12.445312 C 11.230469 12.382812 11.082031 12.304688 10.953125 12.207031 C 10.8125 12.109375 10.683594 11.984375 10.566406 11.855469 C 10.453125 11.71875 10.34375 11.566406 10.253906 11.398438 C 10.160156 11.222656 10.082031 11.03125 10.03125 10.820312 C 9.976562 10.605469 9.953125 10.367188 9.953125 10.109375 C 9.953125 9.652344 10.03125 9.246094 10.175781 8.910156 C 10.328125 8.574219 10.53125 8.285156 10.773438 8.0625 C 11.019531 7.84375 11.304688 7.675781 11.621094 7.566406 C 11.9375 7.460938 12.257812 7.414062 12.582031 7.429688 C 12.742188 7.4375 12.902344 7.453125 13.058594 7.476562 C 13.21875 7.5 13.375 7.53125 13.527344 7.566406 C 13.664062 7.605469 13.804688 7.660156 13.933594 7.71875 C 13.996094 7.75 14.058594 7.789062 14.117188 7.828125 C 14.125 7.636719 14.132812 7.363281 14.148438 6.972656 L 14.171875 6.378906 C 14.179688 6.09375 14.203125 5.765625 14.226562 5.386719 C 14.25 5.011719 14.28125 4.578125 14.320312 4.089844 C 14.324219 3.964844 14.386719 3.867188 14.488281 3.796875 C 14.664062 3.675781 14.863281 3.675781 15.019531 3.777344 C 15.101562 3.828125 15.164062 3.921875 15.195312 4.042969 C 15.195312 4.058594 15.203125 4.074219 15.195312 4.089844 C 15.125 5.042969 15.078125 5.914062 15.054688 6.691406 C 15.03125 7.5 15.019531 8.179688 15.019531 8.773438 L 15.019531 9.230469 C 15.019531 9.375 15.019531 9.515625 15.027344 9.644531 C 15.03125 10.023438 15.039062 10.375 15.054688 10.6875 C 15.070312 11 15.085938 11.300781 15.117188 11.582031 C 15.117188 11.589844 15.140625 11.65625 15.339844 11.917969 C 15.507812 12.167969 15.464844 12.328125 15.394531 12.414062 Z M 17.316406 12.167969 C 17.316406 12.167969 17.316406 12.175781 17.316406 12.175781 C 17.300781 12.3125 17.246094 12.429688 17.164062 12.496094 C 17.078125 12.566406 16.984375 12.605469 16.886719 12.605469 C 16.769531 12.605469 16.671875 12.566406 16.59375 12.488281 C 16.515625 12.421875 16.460938 12.320312 16.433594 12.199219 C 16.433594 12.191406 16.433594 12.175781 16.433594 12.167969 L 16.53125 7.835938 C 16.53125 7.691406 16.578125 7.574219 16.671875 7.5 C 16.839844 7.371094 17.070312 7.355469 17.253906 7.5 C 17.324219 7.550781 17.40625 7.652344 17.40625 7.835938 Z M 17.808594 6.589844 C 17.808594 6.605469 17.800781 6.621094 17.792969 6.628906 C 17.707031 6.773438 17.59375 6.898438 17.453125 6.980469 C 17.308594 7.0625 17.15625 7.109375 16.984375 7.109375 C 16.902344 7.109375 16.824219 7.09375 16.738281 7.070312 C 16.664062 7.050781 16.59375 7.019531 16.523438 6.988281 C 16.363281 6.875 16.246094 6.75 16.164062 6.613281 C 16.070312 6.46875 16.023438 6.316406 16.023438 6.164062 C 16.023438 6.09375 16.03125 6.027344 16.046875 5.949219 C 16.0625 5.875 16.09375 5.789062 16.140625 5.714844 C 16.277344 5.492188 16.460938 5.339844 16.707031 5.257812 C 16.976562 5.171875 17.191406 5.195312 17.453125 5.339844 C 17.601562 5.425781 17.722656 5.539062 17.800781 5.691406 C 17.875 5.835938 17.921875 5.996094 17.921875 6.164062 C 17.914062 6.308594 17.875 6.453125 17.808594 6.589844 Z M 20.445312 12.535156 C 20.207031 12.535156 20.003906 12.480469 19.835938 12.375 C 19.636719 12.246094 19.484375 12.054688 19.367188 11.808594 C 19.261719 11.574219 19.183594 11.292969 19.136719 10.941406 C 19.089844 10.605469 19.066406 10.214844 19.066406 9.796875 C 19.066406 9.613281 19.066406 9.429688 19.074219 9.253906 C 19.082031 9.109375 19.082031 8.957031 19.089844 8.789062 C 19.074219 8.789062 19.058594 8.78125 19.054688 8.78125 C 19 8.773438 18.945312 8.765625 18.898438 8.75 C 18.890625 8.75 18.882812 8.742188 18.875 8.742188 L 18.628906 8.691406 C 18.539062 8.667969 18.453125 8.636719 18.382812 8.605469 C 18.300781 8.566406 18.230469 8.507812 18.183594 8.445312 C 18.136719 8.371094 18.113281 8.277344 18.136719 8.179688 C 18.167969 8.042969 18.253906 7.941406 18.367188 7.886719 C 18.554688 7.804688 18.785156 7.804688 19.023438 7.859375 C 19.058594 7.867188 19.097656 7.875 19.136719 7.878906 C 19.160156 7.683594 19.175781 7.484375 19.191406 7.300781 C 19.207031 7.0625 19.222656 6.835938 19.230469 6.628906 C 19.246094 6.316406 19.269531 6.058594 19.292969 5.84375 C 19.320312 5.597656 19.390625 5.4375 19.5 5.355469 C 19.515625 5.347656 19.53125 5.339844 19.542969 5.332031 C 19.859375 5.234375 20.019531 5.261719 20.136719 5.386719 C 20.214844 5.46875 20.242188 5.585938 20.230469 5.738281 C 20.214844 5.8125 20.207031 5.867188 20.199219 5.917969 L 20.167969 6.101562 C 20.167969 6.101562 20.167969 6.125 20.167969 6.148438 C 20.167969 6.15625 20.167969 6.1875 20.167969 6.1875 C 20.152344 6.355469 20.128906 6.582031 20.113281 6.859375 C 20.089844 7.140625 20.066406 7.492188 20.042969 7.925781 L 20.035156 7.996094 C 20.257812 7.996094 20.429688 8.011719 20.558594 8.035156 C 20.726562 8.0625 20.84375 8.101562 20.929688 8.140625 C 21.035156 8.195312 21.097656 8.261719 21.121094 8.347656 C 21.136719 8.40625 21.144531 8.453125 21.144531 8.507812 C 21.121094 8.628906 21.066406 8.703125 20.980469 8.757812 C 20.914062 8.804688 20.835938 8.835938 20.734375 8.851562 C 20.644531 8.863281 20.550781 8.878906 20.453125 8.878906 C 20.296875 8.886719 20.113281 8.886719 20.019531 8.878906 L 20.019531 9.046875 C 20.019531 9.5 20.027344 9.894531 20.042969 10.238281 C 20.058594 10.566406 20.074219 10.839844 20.105469 11.070312 C 20.183594 11.574219 20.390625 11.636719 20.542969 11.636719 C 20.628906 11.636719 20.683594 11.597656 20.71875 11.519531 C 20.773438 11.40625 20.820312 11.269531 20.84375 11.109375 C 20.859375 10.984375 20.90625 10.886719 20.980469 10.820312 C 21.152344 10.679688 21.398438 10.6875 21.574219 10.863281 C 21.664062 10.957031 21.726562 11.078125 21.742188 11.230469 C 21.742188 11.246094 21.742188 11.253906 21.742188 11.269531 C 21.679688 11.671875 21.574219 11.96875 21.40625 12.175781 C 21.226562 12.390625 20.953125 12.511719 20.589844 12.527344 C 20.535156 12.535156 20.488281 12.535156 20.445312 12.535156 Z M 20.445312 12.535156 " fill-opacity="1" fill-rule="nonzero"/></g><g clip-path="url(#4b7f4e0c3b)"><path fill="#000000" d="M 21.875 31.113281 L 21.875 34.289062 L 37.007812 34.289062 L 37.007812 31.113281 Z M 21.875 31.113281 " fill-opacity="1" fill-rule="nonzero"/></g><path fill="#000000" d="M 35.363281 29.832031 L 36.375 24.148438 C 36.675781 22.753906 36 21.324219 34.722656 20.660156 L 27.183594 16.730469 L 27.183594 9.300781 C 27.183594 8.355469 26.40625 7.582031 25.453125 7.582031 C 24.503906 7.582031 23.726562 8.355469 23.726562 9.300781 L 23.726562 21.78125 C 23.726562 21.78125 22.671875 21.402344 20.945312 19.785156 C 20.367188 19.242188 19.730469 19.066406 19.128906 19.066406 C 18.714844 19.066406 18.316406 19.160156 17.976562 19.273438 C 17.402344 19.472656 17.183594 20.179688 17.539062 20.675781 L 23.320312 29.832031 Z M 35.363281 29.832031 " fill-opacity="1" fill-rule="nonzero"/></svg>