<svg xmlns="http://www.w3.org/2000/svg" xmlns:xlink="http://www.w3.org/1999/xlink" width="150" zoomAndPan="magnify" viewBox="0 0 112.5 112.499997" height="150" preserveAspectRatio="xMidYMid meet" version="1.0"><defs><filter x="0%" y="0%" width="100%" height="100%" id="30c2ad2ae2"><feColorMatrix values="0 0 0 0 1 0 0 0 0 1 0 0 0 0 1 0 0 0 1 0" color-interpolation-filters="sRGB"/></filter><clipPath id="dc1061f84c"><path d="M 0 0 L 112.003906 0 L 112.003906 112.003906 L 0 112.003906 Z M 0 0 " clip-rule="nonzero"/></clipPath><mask id="545c96c9e6"><g filter="url(#30c2ad2ae2)"><rect x="-11.25" width="135" fill="#000000" y="-11.25" height="134.999996" fill-opacity="0.5"/></g></mask><clipPath id="9e8bdd6485"><path d="M 13 50 L 73 50 L 73 63.335938 L 13 63.335938 Z M 13 50 " clip-rule="nonzero"/></clipPath><clipPath id="22f6f05147"><path d="M 1.296875 32 L 13 32 L 13 61 L 1.296875 61 Z M 1.296875 32 " clip-rule="nonzero"/></clipPath><clipPath id="4d872d1ff5"><path d="M 1.296875 28 L 72 28 L 72 54 L 1.296875 54 Z M 1.296875 28 " clip-rule="nonzero"/></clipPath><clipPath id="bc96c64b0a"><path d="M 20 32 L 78.695312 32 L 78.695312 50 L 20 50 Z M 20 32 " clip-rule="nonzero"/></clipPath><clipPath id="86e01ab969"><path d="M 8 9 L 78.695312 9 L 78.695312 35 L 8 35 Z M 8 9 " clip-rule="nonzero"/></clipPath><clipPath id="7f3d20d922"><path d="M 3 0.617188 L 61 0.617188 L 61 21 L 3 21 Z M 3 0.617188 " clip-rule="nonzero"/></clipPath><clipPath id="3022595bcf"><rect x="0" width="79" y="0" height="65"/></clipPath><clipPath id="b393de520d"><path d="M 0 87 L 112.003906 87 L 112.003906 92 L 0 92 Z M 0 87 " clip-rule="nonzero"/></clipPath><mask id="0e21f263c7"><g filter="url(#30c2ad2ae2)"><rect x="-11.25" width="135" fill="#000000" y="-11.25" height="134.999996" fill-opacity="0.5"/></g></mask><clipPath id="601393f590"><path d="M 0 1 L 112.003906 1 L 112.003906 4.992188 L 0 4.992188 Z M 0 1 " clip-rule="nonzero"/></clipPath><clipPath id="c5026d5a15"><rect x="0" width="113" y="0" height="5"/></clipPath><clipPath id="a2a6c869c8"><path d="M 0 89 L 112.003906 89 L 112.003906 94 L 0 94 Z M 0 89 " clip-rule="nonzero"/></clipPath><mask id="77ef8cbb04"><g filter="url(#30c2ad2ae2)"><rect x="-11.25" width="135" fill="#000000" y="-11.25" height="134.999996" fill-opacity="0.5"/></g></mask><clipPath id="14dd54a52c"><path d="M 0 1 L 112.003906 1 L 112.003906 4.902344 L 0 4.902344 Z M 0 1 " clip-rule="nonzero"/></clipPath><clipPath id="1207373e2f"><rect x="0" width="113" y="0" height="5"/></clipPath></defs><g clip-path="url(#dc1061f84c)"><path fill="#ffffff" d="M 0 0 L 112.003906 0 L 112.003906 112.003906 L 0 112.003906 Z M 0 0 " fill-opacity="1" fill-rule="nonzero"/><path fill="#fff5dc" d="M 0 0 L 112.003906 0 L 112.003906 112.003906 L 0 112.003906 Z M 0 0 " fill-opacity="1" fill-rule="nonzero"/></g><g mask="url(#545c96c9e6)"><g transform="matrix(1, 0, 0, 1, 16, 24)"><g clip-path="url(#3022595bcf)"><g clip-path="url(#9e8bdd6485)"><path fill="#ef7e6b" d="M 71.980469 50.789062 C 73.019531 53.40625 72.976562 57.386719 72.414062 60.234375 C 72.234375 61.144531 71.449219 61.808594 70.523438 61.875 C 51.410156 63.144531 32.222656 63.359375 13.085938 62.519531 C 13.164062 59.300781 13.34375 56.085938 13.421875 52.867188 L 13.726562 52.867188 " fill-opacity="1" fill-rule="nonzero"/></g><g clip-path="url(#22f6f05147)"><path stroke-linecap="round" transform="matrix(-0.338399, 0, 0, 0.33703, 112.082631, -39.827558)" fill="none" stroke-linejoin="round" d="M 296.215052 297.681636 C 304.445443 284.294927 310.644209 274.234613 318.8746 260.836314 C 322.637724 254.716675 321.621912 256.443619 325.396579 250.33557 C 327.289684 247.275751 325.396579 223.875089 323.884403 213.675691 " stroke="#365fa0" stroke-width="1" stroke-opacity="1" stroke-miterlimit="10"/></g><path stroke-linecap="round" transform="matrix(-0.338399, 0, 0, 0.33703, 112.082631, -39.827558)" fill="none" stroke-linejoin="round" d="M 292.648164 297.426651 C 302.448448 281.640766 312.248731 265.854881 322.037471 250.057405 " stroke="#365fa0" stroke-width="1" stroke-opacity="1" stroke-miterlimit="10"/><path stroke-linecap="round" transform="matrix(-0.338399, 0, 0, 0.33703, 112.082631, -39.827558)" fill="none" stroke-linejoin="round" d="M 145.228352 302.839286 C 145.886322 293.683009 147.375411 280.968533 148.852957 271.904978 " stroke="#365fa0" stroke-width="1" stroke-opacity="1" stroke-miterlimit="10"/><path stroke-linecap="round" transform="matrix(-0.338399, 0, 0, 0.33703, 112.082631, -39.827558)" fill="none" stroke-linejoin="round" d="M 168.176484 302.398858 C 168.176484 293.72937 168.176484 285.048292 168.176484 276.378804 " stroke="#365fa0" stroke-width="1" stroke-opacity="1" stroke-miterlimit="10"/><path stroke-linecap="round" transform="matrix(-0.338399, 0, 0, 0.33703, 112.082631, -39.827558)" fill="none" stroke-linejoin="round" d="M 257.464108 302.850876 C 257.764234 294.633407 258.064361 286.404348 258.364487 278.175289 " stroke="#365fa0" stroke-width="1" stroke-opacity="1" stroke-miterlimit="10"/><path stroke-linecap="round" transform="matrix(-0.338399, 0, 0, 0.33703, 112.082631, -39.827558)" fill="none" stroke-linejoin="round" d="M 264.263126 303.302895 C 264.009173 294.169798 264.286213 285.025112 265.094246 275.938376 " stroke="#365fa0" stroke-width="1" stroke-opacity="1" stroke-miterlimit="10"/><g clip-path="url(#4d872d1ff5)"><path fill="#98d4e1" d="M 71.757812 50.828125 C 67.65625 44.285156 59.855469 34.582031 55.175781 28.671875 C 36.503906 29.792969 20.644531 29.5 1.972656 30.617188 C 3.871094 37.5 11.136719 46.546875 13.929688 53.117188 C 31.796875 52.371094 49.683594 51.792969 67.566406 51.792969 Z M 71.757812 50.828125 " fill-opacity="1" fill-rule="nonzero"/></g><path stroke-linecap="round" transform="matrix(-0.338399, 0, 0, 0.33703, 112.082631, -39.827558)" fill="none" stroke-linejoin="round" d="M 149.961116 252.850649 C 158.503177 241.01703 167.045238 229.183411 175.575755 217.349792 C 175.933599 216.874593 176.291442 216.364623 176.799348 216.074868 C 177.480404 215.6808 178.311524 215.70398 179.09647 215.727161 C 184.071643 215.935785 189.02373 216.468935 193.906557 217.338202 C 187.800137 229.867234 180.550929 241.851526 172.285908 253.094044 C 171.835718 253.708326 171.350898 254.345788 170.646755 254.670314 C 170.034959 254.96007 169.319273 254.94848 168.626673 254.936889 C 165.036699 254.878938 161.446725 254.820987 157.856751 254.751446 " stroke="#365fa0" stroke-width="1" stroke-opacity="1" stroke-miterlimit="10"/><path stroke-linecap="round" transform="matrix(-0.338399, 0, 0, 0.33703, 112.082631, -39.827558)" fill-opacity="1" fill="#ffffff" fill-rule="nonzero" stroke-linejoin="round" d="M 271.327642 262.574847 C 278.61148 247.785721 289.427576 231.640539 295.914925 217.326612 C 299.458726 209.514801 303.002527 202.73452 305.865272 196.174453 C 306.176942 195.444269 307.654488 193.068273 308.42789 190.34457 C 308.612584 189.695517 304.179947 190.483653 304.19149 189.730288 C 304.203033 181.176703 304.583963 166.677332 304.099143 159.004604 L 267.241304 216.295082 L 271.327642 262.574847 " stroke="#365fa0" stroke-width="1" stroke-opacity="1" stroke-miterlimit="10"/><path fill="#d7c8b5" d="M 20.632812 47.070312 C 15.667969 40.097656 11.886719 30.757812 8.335938 24.121094 C 7.148438 24.324219 8.484375 26.1875 8.832031 26.925781 C 12.34375 34.398438 16.199219 41.707031 20.382812 48.824219 C 20.371094 48.261719 20.347656 47.699219 20.332031 47.140625 Z M 20.632812 47.070312 " fill-opacity="1" fill-rule="nonzero"/><path stroke-linecap="round" transform="matrix(-0.338399, 0, 0, 0.33703, 112.082631, -39.827558)" fill="none" stroke-linejoin="round" d="M 270.242569 257.834446 C 279.927419 244.192752 295.834122 214.64927 302.656228 196.186043 " stroke="#365fa0" stroke-width="1" stroke-opacity="1" stroke-miterlimit="10"/><g clip-path="url(#bc96c64b0a)"><path fill="#fdd28a" d="M 20.886719 34.078125 L 20.585938 34.078125 C 20.507812 37.296875 20.332031 45.867188 20.253906 49.085938 C 39.199219 49.921875 58.1875 49.707031 77.105469 48.441406 C 77.9375 48.382812 78.582031 47.695312 78.582031 46.867188 C 78.566406 42.660156 78.558594 35.238281 78.542969 32.003906 " fill-opacity="1" fill-rule="nonzero"/></g><g clip-path="url(#86e01ab969)"><path fill="#ef7e6b" d="M 78.316406 32.039062 C 74.214844 25.496094 66.414062 15.792969 61.730469 9.882812 C 43.0625 11.003906 27.203125 10.710938 8.527344 11.828125 C 10.429688 18.710938 17.691406 27.757812 20.488281 34.328125 C 38.355469 33.582031 55.984375 33.371094 73.921875 32.554688 Z M 78.316406 32.039062 " fill-opacity="1" fill-rule="nonzero"/></g><path stroke-linecap="round" transform="matrix(-0.338399, 0, 0, 0.33703, 112.082631, -39.827558)" fill="none" stroke-linejoin="round" d="M 130.579872 197.09008 C 139.121933 185.256461 147.663994 173.422843 156.194512 161.589224 C 156.552355 161.114024 156.910198 160.615645 157.418104 160.314299 C 158.09916 159.920231 158.93028 159.943412 159.715226 159.966592 C 164.690399 160.175216 169.642486 160.708367 174.525313 161.577633 C 168.418894 174.106666 161.169685 186.090958 152.904664 197.321885 C 152.454474 197.936167 151.969654 198.585219 151.265512 198.898155 C 150.653715 199.187911 149.938029 199.176321 149.24543 199.164731 C 145.655455 199.106779 142.065481 199.048828 138.475507 198.979287 " stroke="#365fa0" stroke-width="1" stroke-opacity="1" stroke-miterlimit="10"/><path stroke-linecap="round" transform="matrix(-0.338399, 0, 0, 0.33703, 112.082631, -39.827558)" fill="none" stroke-linejoin="round" d="M 117.593631 245.16633 C 119.475193 249.222909 122.834301 252.190006 126.562795 253.650375 C 130.279746 255.110743 134.35454 255.133923 138.186924 254.195115 C 141.915418 253.291078 145.620825 251.390281 148.044924 247.936394 C 149.083823 246.464436 149.868769 244.737492 150.168896 242.859876 C 150.515195 240.715684 150.203526 238.490361 149.557099 236.450482 C 147.525474 229.902005 142.204001 225.219555 136.420795 223.678055 C 131.653401 222.41472 122.776584 222.333589 118.990373 226.761054 C 115.227249 231.153749 115.204162 240.055042 117.593631 245.16633 Z M 117.593631 245.16633 " stroke="#365fa0" stroke-width="1" stroke-opacity="1" stroke-miterlimit="10"/><path stroke-linecap="round" transform="matrix(-0.338399, 0, 0, 0.33703, 112.082631, -39.827558)" fill="none" stroke-linejoin="round" d="M 221.125718 219.609886 C 221.414302 234.364241 221.564365 249.118597 221.575908 263.884543 " stroke="#365fa0" stroke-width="1" stroke-opacity="1" stroke-miterlimit="10"/><path stroke-linecap="round" transform="matrix(-0.338399, 0, 0, 0.33703, 112.082631, -39.827558)" fill="none" stroke-linejoin="round" d="M 229.875559 219.609886 C 230.244946 234.572866 230.614332 249.524255 230.983719 264.487234 " stroke="#365fa0" stroke-width="1" stroke-opacity="1" stroke-miterlimit="10"/><path stroke-linecap="round" transform="matrix(-0.338399, 0, 0, 0.33703, 112.082631, -39.827558)" fill="none" stroke-linejoin="round" d="M 238.198297 219.609886 C 238.232927 234.27152 238.717747 248.933153 239.675843 263.560016 " stroke="#365fa0" stroke-width="1" stroke-opacity="1" stroke-miterlimit="10"/><path stroke-linecap="round" transform="matrix(-0.338399, 0, 0, 0.33703, 112.082631, -39.827558)" fill="none" stroke-linejoin="round" d="M 241.314995 219.922822 C 240.426159 234.28311 241.095672 248.724529 243.288904 262.945734 " stroke="#365fa0" stroke-width="1" stroke-opacity="1" stroke-miterlimit="10"/><path stroke-linecap="round" transform="matrix(-0.338399, 0, 0, 0.33703, 112.082631, -39.827558)" fill-opacity="1" fill="#ffffff" fill-rule="nonzero" stroke-linejoin="round" d="M 320.202083 128.626626 L 294.448923 168.044979 L 288.457937 193.682554 L 293.91793 202.143418 L 297.288581 197.09008 C 304.076057 186.044597 309.29364 178.545722 316.081115 167.500238 C 319.174727 162.45849 318.343607 163.884088 321.448762 158.842341 C 323.007111 156.327262 321.448762 137.052719 320.202083 128.626626 " stroke="#365fa0" stroke-width="1" stroke-opacity="1" stroke-miterlimit="10"/><path fill="#d7c8b5" d="M 61.03125 18.859375 C 61.886719 21.015625 61.855469 24.300781 61.390625 26.644531 C 61.242188 27.394531 60.59375 27.945312 59.832031 27.996094 C 44.070312 29.042969 28.253906 29.21875 12.476562 28.527344 C 12.539062 25.875 12.6875 23.222656 12.753906 20.570312 L 13.003906 20.570312 " fill-opacity="1" fill-rule="nonzero"/><path stroke-linecap="round" transform="matrix(-0.338399, 0, 0, 0.33703, 112.082631, -39.827558)" fill="none" stroke-linejoin="round" d="M 295.453192 196.05855 C 303.53352 183.042729 310.598036 171.637948 318.678364 158.622126 " stroke="#365fa0" stroke-width="1" stroke-opacity="1" stroke-miterlimit="10"/><path stroke-linecap="round" transform="matrix(-0.338399, 0, 0, 0.33703, 112.082631, -39.827558)" fill="none" stroke-linejoin="round" d="M 174.386793 201.343693 C 174.929329 193.786867 174.617659 184.816033 175.841252 177.340338 " stroke="#365fa0" stroke-width="1" stroke-opacity="1" stroke-miterlimit="10"/><path stroke-linecap="round" transform="matrix(-0.338399, 0, 0, 0.33703, 112.082631, -39.827558)" fill="none" stroke-linejoin="round" d="M 190.489732 202.514305 C 190.489732 195.363137 190.489732 184.491507 190.489732 177.340338 " stroke="#365fa0" stroke-width="1" stroke-opacity="1" stroke-miterlimit="10"/><path stroke-linecap="round" transform="matrix(-0.338399, 0, 0, 0.33703, 112.082631, -39.827558)" fill="none" stroke-linejoin="round" d="M 265.429002 202.155008 C 265.682955 195.374727 265.925365 188.594446 266.167775 181.814165 " stroke="#365fa0" stroke-width="1" stroke-opacity="1" stroke-miterlimit="10"/><path stroke-linecap="round" transform="matrix(-0.338399, 0, 0, 0.33703, 112.082631, -39.827558)" fill="none" stroke-linejoin="round" d="M 271.039059 202.514305 C 270.831279 194.99225 271.062145 187.447014 271.743201 179.948139 " stroke="#365fa0" stroke-width="1" stroke-opacity="1" stroke-miterlimit="10"/><g clip-path="url(#7f3d20d922)"><path fill="#98d4e1" d="M 60.84375 18.894531 C 57.460938 13.5 51.027344 5.5 47.171875 0.628906 C 31.777344 1.554688 18.703125 1.308594 3.308594 2.230469 C 4.875 7.902344 10.449219 15.15625 12.753906 20.574219 C 27.484375 19.957031 42.648438 19.691406 57.390625 19.691406 Z M 60.84375 18.894531 " fill-opacity="1" fill-rule="nonzero"/></g><path stroke-linecap="round" transform="matrix(-0.338399, 0, 0, 0.33703, 112.082631, -39.827558)" fill="none" stroke-linejoin="round" d="M 186.068638 147.182575 C 184.544919 152.409766 185.872402 157.590596 193.040807 160.395431 C 198.32765 162.4469 204.39944 161.345829 209.536219 158.935062 C 216.566105 155.655029 224.923473 146.40603 219.578913 138.095839 C 218.07828 135.766204 215.665725 134.166753 213.137737 133.030911 C 205.034322 129.391581 197.138688 131.44305 191.251592 138.223332 C 188.91984 140.889083 186.980561 144.053214 186.068638 147.182575 Z M 186.068638 147.182575 " stroke="#365fa0" stroke-width="1" stroke-opacity="1" stroke-miterlimit="10"/><path stroke-linecap="round" transform="matrix(-0.338399, 0, 0, 0.33703, 112.082631, -39.827558)" fill="none" stroke-linejoin="round" d="M 218.2168 167.419106 C 223.746053 155.933194 229.783213 144.667496 236.282105 133.691554 C 237.563414 134.421738 240.091402 135.03602 241.557405 135.186693 C 240.160662 137.11067 239.583496 139.17373 238.683117 141.086117 C 236.536058 145.641075 234.400543 150.184443 232.265028 154.739401 C 230.591245 158.2976 228.90592 161.855799 227.243681 165.425588 C 226.724231 166.515069 226.181695 167.488648 225.754592 168.6129 C 225.085079 170.374614 220.987199 169.285133 220.294599 168.288373 " stroke="#365fa0" stroke-width="1" stroke-opacity="1" stroke-miterlimit="10"/></g></g></g><g clip-path="url(#b393de520d)"><g mask="url(#0e21f263c7)"><g transform="matrix(1, 0, 0, 1, 0, 87)"><g clip-path="url(#c5026d5a15)"><g clip-path="url(#601393f590)"><path stroke-linecap="round" transform="matrix(0.746681, 0, 0, 0.746681, 0.0000015, 1.167145)" fill="none" stroke-linejoin="miter" d="M 2.500646 2.501752 L 147.501628 2.501752 " stroke="#fff5dc" stroke-width="5" stroke-opacity="1" stroke-miterlimit="4"/></g></g></g></g></g><g clip-path="url(#a2a6c869c8)"><g mask="url(#77ef8cbb04)"><g transform="matrix(1, 0, 0, 1, 0, 89)"><g clip-path="url(#1207373e2f)"><g clip-path="url(#14dd54a52c)"><path stroke-linecap="round" transform="matrix(0.746681, 0, 0, 0.746681, 0.0000015, 1.033848)" fill="none" stroke-linejoin="miter" d="M 2.500646 2.5024 L 147.501628 2.5024 " stroke="#ef7e6b" stroke-width="5" stroke-opacity="1" stroke-miterlimit="4"/></g></g></g></g></g></svg>